<?xml version="1.0" encoding="utf-8"?>
<!-- Generator: Adobe Illustrator 24.3.0, SVG Export Plug-In . SVG Version: 6.00 Build 0)  -->
<svg version="1.1" id="Layer_1" xmlns="http://www.w3.org/2000/svg" xmlns:xlink="http://www.w3.org/1999/xlink" x="0px" y="0px"
	 viewBox="0 0 90 90" style="enable-background:new 0 0 90 90;" xml:space="preserve">
<g id="Layer_11">
	<g>
		<path d="M70.9,23.1c0-3.7-3-6.7-6.7-6.7c-3.7,0-6.7,3-6.7,6.7v0.2c0,1.8,1,3.9,2.9,6c1.3,1.5,2.6,2.5,2.6,2.6l1.2,1l1.2-1
			c0.1,0,1.3-1.1,2.6-2.6c1.9-2.2,2.9-4.2,2.9-6V23.1z M68.9,23.3c0,2-2.3,5-4.6,7.3c-2.3-2.3-4.6-5.3-4.6-7.3V23
			c0-2.6,2.1-4.6,4.6-4.6c2.6,0,4.6,2.1,4.6,4.6V23.3z"/>
		<path d="M70.9,47.1c1.1,0,1.9,0.9,1.9,1.9s-0.9,1.9-1.9,1.9S69,50,69,49S69.9,47.1,70.9,47.1z"/>
		<path d="M70.9,53.7c1.1,0,1.9,0.9,1.9,1.9c0,1.1-0.9,1.9-1.9,1.9S69,56.6,69,55.6C69,54.6,69.9,53.7,70.9,53.7z"/>
		<path d="M70.9,60.3c1.1,0,1.9,0.9,1.9,1.9c0,1.1-0.9,1.9-1.9,1.9S69,63.2,69,62.2C69,61.2,69.9,60.3,70.9,60.3z"/>
		<path d="M57.6,33.9c1,0,1.9,0.9,1.9,1.9s-0.9,1.9-1.9,1.9c-1.1,0-1.9-0.9-1.9-1.9C55.7,34.8,56.5,33.9,57.6,33.9z"/>
		<path d="M64.3,47.1c1.1,0,1.9,0.9,1.9,1.9s-0.9,1.9-1.9,1.9S62.4,50,62.4,49S63.2,47.1,64.3,47.1z"/>
		<path d="M64.3,33.9c1.1,0,1.9,0.9,1.9,1.9s-0.9,1.9-1.9,1.9s-1.9-0.9-1.9-1.9C62.4,34.8,63.2,33.9,64.3,33.9z"/>
		<path d="M57.6,47.1c1,0,1.9,0.9,1.9,1.9s-0.9,1.9-1.9,1.9c-1.1,0-1.9-0.9-1.9-1.9C55.7,48,56.5,47.1,57.6,47.1z"/>
		<path d="M57.6,40.5c1,0,1.9,0.9,1.9,1.9c0,1.1-0.9,1.9-1.9,1.9c-1.1,0-1.9-0.9-1.9-1.9C55.7,41.4,56.5,40.5,57.6,40.5z"/>
		<path d="M64.3,60.3c1.1,0,1.9,0.9,1.9,1.9c0,1.1-0.9,1.9-1.9,1.9s-1.9-0.9-1.9-1.9C62.4,61.2,63.2,60.3,64.3,60.3z"/>
		<path d="M57.6,60.3c1,0,1.9,0.9,1.9,1.9c0,1.1-0.9,1.9-1.9,1.9c-1.1,0-1.9-0.9-1.9-1.9C55.7,61.2,56.5,60.3,57.6,60.3z"/>
		<path d="M50.9,60.3c1.1,0,1.9,0.9,1.9,1.9c0,1.1-0.9,1.9-1.9,1.9S49,63.2,49,62.2C49,61.2,49.8,60.3,50.9,60.3z"/>
		<path d="M44.2,60.3c1,0,1.9,0.9,1.9,1.9c0,1.1-0.9,1.9-1.9,1.9c-1.1,0-1.9-0.9-1.9-1.9C42.3,61.2,43.1,60.3,44.2,60.3z"/>
		<path d="M37.5,60.3c1.1,0,1.9,0.9,1.9,1.9c0,1.1-0.9,1.9-1.9,1.9s-1.9-0.9-1.9-1.9C35.6,61.2,36.5,60.3,37.5,60.3z"/>
		<path d="M37.5,53.7c1.1,0,1.9,0.9,1.9,1.9c0,1.1-0.9,1.9-1.9,1.9s-1.9-0.9-1.9-1.9C35.6,54.6,36.5,53.7,37.5,53.7z"/>
		<g>
			<path d="M36.9,16.7c-7.1,0-12.9,5.8-12.9,12.9c0,5.1,2.1,10.2,6.1,14.8c3,3.5,6,5.4,6.1,5.5c0.2,0.1,0.4,0.2,0.6,0.2
				s0.4-0.1,0.6-0.2c0.1-0.1,3.1-2,6.1-5.5c4-4.6,6.1-9.8,6.1-14.8C49.8,22.5,44,16.7,36.9,16.7L36.9,16.7z M36.9,47.5
				c-2.4-1.8-10.6-8.5-10.6-17.9C26.3,23.8,31,19,36.9,19s10.6,4.7,10.6,10.6C47.5,39,39.3,45.8,36.9,47.5L36.9,47.5z"/>
			<path d="M36.9,24.5c-2.8,0-5.1,2.3-5.1,5.1s2.3,5.1,5.1,5.1s5.1-2.3,5.1-5.1S39.7,24.5,36.9,24.5L36.9,24.5z M36.9,32.4
				c-1.5,0-2.8-1.3-2.8-2.8s1.3-2.8,2.8-2.8s2.8,1.3,2.8,2.8C39.7,31.1,38.4,32.4,36.9,32.4L36.9,32.4z"/>
		</g>
	</g>
</g>
</svg>
