<?xml version="1.0" encoding="utf-8"?>
<!-- Generator: Adobe Illustrator 24.3.0, SVG Export Plug-In . SVG Version: 6.00 Build 0)  -->
<svg version="1.1" id="Layer_1" xmlns="http://www.w3.org/2000/svg" xmlns:xlink="http://www.w3.org/1999/xlink" x="0px" y="0px"
	 viewBox="0 0 90 90" style="enable-background:new 0 0 90 90;" xml:space="preserve">
<style type="text/css">
	.st0{display:none;}
	.st1{display:inline;fill:#BBDFE7;}
	.st2{display:inline;}
	.st3{fill:none;stroke:#398087;stroke-width:2;stroke-miterlimit:10;}
	.st4{fill:#BBDFE7;stroke:#398087;stroke-width:2;stroke-miterlimit:10;}
	.st5{display:inline;fill:none;stroke:#398087;stroke-width:2;stroke-miterlimit:10;}
	.st6{fill:#333333;}
	
		.st7{display:inline;fill:#E2E2E2;stroke:#252626;stroke-width:2;stroke-linecap:round;stroke-linejoin:round;stroke-miterlimit:10;}
	
		.st8{display:inline;fill:#FFFFFF;stroke:#252626;stroke-width:2;stroke-linecap:round;stroke-linejoin:round;stroke-miterlimit:10;}
	.st9{fill:#FFFFFF;stroke:#252626;stroke-width:2;stroke-linecap:round;stroke-linejoin:round;stroke-miterlimit:10;}
	.st10{fill:none;stroke:#252626;stroke-width:2;stroke-linecap:round;stroke-linejoin:round;stroke-miterlimit:10;}
	.st11{fill:#E2E2E2;stroke:#252626;stroke-width:2;stroke-linecap:round;stroke-linejoin:round;stroke-miterlimit:10;}
	.st12{display:inline;fill:none;stroke:#252626;stroke-width:2;stroke-linecap:round;stroke-linejoin:round;stroke-miterlimit:10;}
	.st13{display:inline;fill:none;stroke:#398087;stroke-width:3;stroke-linecap:round;stroke-linejoin:round;stroke-miterlimit:10;}
	.st14{display:inline;fill:none;stroke:#398087;stroke-width:3;stroke-linecap:round;stroke-linejoin:bevel;stroke-miterlimit:10;}
	.st15{display:inline;fill:none;stroke:#398087;stroke-width:3;stroke-linejoin:bevel;stroke-miterlimit:10;}
	.st16{display:inline;fill:none;stroke:#398087;stroke-width:3;stroke-linejoin:round;stroke-miterlimit:10;}
	.st17{display:inline;fill:none;stroke:#398087;stroke-width:1.5;stroke-linejoin:round;stroke-miterlimit:10;}
	.st18{fill:#398087;}
</style>
<g id="background" class="st0">
	<rect y="9.5" class="st1" width="90" height="74.5"/>
</g>
<g id="Layer_8" class="st0">
	<g class="st2">
		<g>
			<path class="st3" d="M64.3,33.4c2.9,4.2,4.6,9.3,4.6,14.9c0,14.4-11.7,26.2-26.2,26.2S16.6,62.7,16.6,48.2S28.3,22,42.8,22
				c5.5,0,10.6,1.7,14.9,4.6l0,0l3.2-3.2l0,0c-3.5-2.5-7.5-4.4-11.8-5.2V17h2.1v-3c0-1.3-1-2.3-2.3-2.3h-12c-1.3,0-2.3,1-2.3,2.3v3
				h2.1v1.2c-5,1-9.5,3.3-13.3,6.4l-1.5-1.5L23,22l-1.5-1.5c-0.9-0.9-2.3-0.9-3.1,0l-3,3c-0.9,0.9-0.9,2.3,0,3.1l1.5,1.5L18,27
				l1.5,1.5c-4.4,5.3-7.1,12.1-7.1,19.5c0,16.9,13.7,30.6,30.6,30.6S73.6,64.9,73.6,48c0-6.7-2.2-13-5.9-18L64.3,33.4z"/>
			<path class="st3" d="M77.3,16.8L42.8,51.4L26.9,35.5c-0.9-0.9-0.9-2.3,0-3.1c0.9-0.9,2.3-0.9,3.1,0l12.7,12.7l20-20l0,0
				l11.5-11.5c0.9-0.9,2.3-0.9,3.1,0C78.2,14.5,78.2,15.9,77.3,16.8z"/>
		</g>
	</g>
</g>
<g id="Layer_9" class="st0">
	<g class="st2">
		<polygon class="st4" points="56.9,51.8 66.1,74.6 55.7,72.4 55.8,72.4 49.8,81.2 40.6,58.4 		"/>
		<polygon class="st4" points="49.1,58.6 39.5,81.2 33.7,72.3 33.8,72.3 23.3,74.4 32.9,51.8 		"/>
		<path class="st4" d="M69.7,36.1c0,1.3-1.6,2.4-1.8,3.7c-0.2,1.3,0.9,2.8,0.6,4c-0.4,1.2-2.2,1.8-2.8,2.9c-0.6,1.1,0,3-0.7,4
			c-0.8,1-2.7,1-3.6,1.9s-0.9,2.8-1.9,3.6c-1,0.7-2.9,0.2-4,0.7c-1.1,0.6-1.7,2.4-2.9,2.8c-1.2,0.4-2.8-0.8-4-0.5
			c-1.2,0.2-2.4,1.8-3.7,1.8s-2.4-1.6-3.7-1.8s-2.8,0.9-4,0.5s-1.8-2.2-2.9-2.8c-1.1-0.6-3,0-4-0.7c-1-0.8-1-2.7-1.9-3.6
			s-2.8-0.9-3.6-1.9c-0.7-1-0.1-2.9-0.7-4s-2.4-1.7-2.8-2.9s0.8-2.8,0.5-4c-0.2-1.2-1.8-2.4-1.8-3.7s1.6-2.4,1.8-3.7
			c0.2-1.3-0.9-2.8-0.5-4s2.2-1.8,2.8-2.9c0.6-1.1,0-3,0.7-4c0.8-1,2.7-1,3.6-1.9s0.9-2.8,1.9-3.6c1-0.7,2.9-0.1,4-0.7
			c1.1-0.6,1.7-2.4,2.9-2.8s2.8,0.8,4,0.6s2.4-1.8,3.7-1.8s2.4,1.6,3.7,1.8s2.8-0.9,4-0.6c1.2,0.4,1.8,2.2,2.9,2.8
			c1.1,0.6,3,0,4,0.7c1,0.8,1,2.7,1.9,3.6s2.8,0.9,3.6,1.9c0.7,1,0.2,2.9,0.7,4c0.6,1.1,2.4,1.7,2.8,2.9c0.4,1.2-0.8,2.8-0.6,4
			C68.1,33.7,69.7,34.8,69.7,36.1z"/>
		<circle class="st3" cx="44.7" cy="36.1" r="18.6"/>
		<circle class="st3" cx="44.7" cy="36.1" r="16.9"/>
		<polygon class="st3" points="55.3,29.3 42.9,44.8 41.6,46.4 39.9,45 34.2,40.2 37.9,36.5 41.1,40.3 50.5,25.8 		"/>
	</g>
</g>
<g id="Layer_10" class="st0">
	<path class="st5" d="M44.7,77.7c-0.8,0-1.7-0.1-2.5-0.4c-6-1.8-25.4-10.3-25.4-41.5v-3.9c0-4.2,3.1-7.8,7.2-8.3
		c7.2-1,12.6-3.9,15.8-6.2c2.9-2.1,6.8-2.1,9.7-0.1c3.3,2.3,8.7,5.3,15.8,6.2l0,0c4.1,0.6,7.2,4.1,7.2,8.3v4
		c0,31.2-19.4,39.7-25.4,41.5C46.4,77.6,45.6,77.7,44.7,77.7z M44.8,20.6c-0.7,0-1.5,0.2-2.1,0.7c-3.7,2.6-9.7,6-18,7
		c-1.8,0.2-3.1,1.8-3.1,3.6v3.9c0,12,3.1,21.6,9.1,28.4c4.8,5.4,10.2,7.7,12.9,8.5c0.7,0.2,1.4,0.2,2.1,0c2.8-0.9,8.2-3.1,12.9-8.5
		c6-6.8,9.1-16.4,9.1-28.4v-4c0-1.8-1.3-3.3-3.1-3.6l0,0c-8-1.1-14.1-4.4-17.9-7.1C46.2,20.8,45.5,20.6,44.8,20.6z"/>
	<path class="st5" d="M40.1,59.7c-1,0-1.9-0.4-2.5-1l-6.4-6.4c-1.4-1.4-1.4-3.7,0-5.1c1.4-1.4,3.7-1.4,5.1,0l3.5,3.5l13.1-17
		c1.2-1.6,3.5-1.9,5-0.7c1.5,1.2,1.9,3.5,0.7,5L43,58.3c-0.6,0.8-1.6,1.3-2.6,1.4C40.3,59.7,40.2,59.7,40.1,59.7z"/>
</g>
<g id="Layer_7" class="st0">
	<g class="st2">
		<path class="st6" d="M78.6,54.3c0.1-3.2-0.2-5.7-3.6-6.5c0-0.5,0-1.1,0-1.7c0.1-3.2,0.2-6.6-1.8-8.7l-0.2,0l0.1-0.1
			c0-0.8,0.1-1.5,0.1-2.2c0-1,0-2,0.1-3c0.2-1.5,0.2-3.4-0.6-5c-1.3-2.5-4.2-2.7-7.1-2.7h-1.5c-1.5-2.4-3-4.8-4.6-7.2
			c-0.2-0.3-0.4-0.6-0.6-1c-0.7-1.2-1.5-2.8-2.7-3.1c-0.2,0-0.3-0.1-0.5-0.1c-0.7,0-1.3,0.4-1.8,0.7c-0.2,0.1-0.3,0.2-0.4,0.3
			c-1.4,0.8-2.8,1.6-4.2,2.5L48.7,17c-0.1-0.1-0.2-0.3-0.3-0.5c-0.8-1.4-1.8-3.4-3.3-3.4c-0.9,0-1.7,0.6-2.5,1.1
			c-0.2,0.2-0.5,0.3-0.7,0.5c-1.8,1.1-3.6,2.1-5.4,3.2c-3.7,2.2-7.3,4.4-10.9,6.6c0,0-0.1,0-0.2,0H25c-0.5,0-1,0-1.5,0s-1,0-1.6,0
			c-2.6,0-5.3,0.3-7.1,2.2c-1,1.1-1.7,2.8-1.7,4.5c-0.4,3.6-0.2,7.4,0,11c0.1,1.3,0.1,2.7,0.2,4c0.1,2.5,0,5,0,7.4
			c-0.1,5.8-0.2,11.8,1.2,17.6c1,3.8,1.9,5.3,5.6,6.2c2.8,0.7,5.6,0.8,7.9,0.8c0.9,0,1.9,0,2.8,0H31c1,0,2,0,3,0
			c3.4,0,6.8,0.1,10.1,0.2s6.7,0.2,10.1,0.2c2.4,0,4.6,0,6.7-0.1c0.6,0,1.2,0,1.8-0.1c3.6-0.1,7.3-0.2,10-2.8
			c1.9-1.9,1.8-5.2,1.8-8.2c0-1,0-2,0-2.9c0.1,0,0.3,0,0.4,0c0.2,0,0.3,0,0.5,0c0.4,0,1,0,1.4-0.3c1.8-1.3,1.8-6.1,1.8-8.6
			C78.6,54.9,78.6,54.6,78.6,54.3z M49.1,76.9c-2.5,0-5-0.1-7.5-0.2c-2.8-0.1-5.8-0.2-8.6-0.2h-0.1c-0.8,0-1.6,0-2.5,0
			c-0.8,0-1.6,0-2.4,0c-2.2,0-4.8-0.1-7.4-0.7c-1.8-0.4-3-1.4-3.8-2.9C17,73,17.3,73,17.5,73c0.5,0,0.7-0.4,0.7-0.7
			c0-0.4-0.2-0.7-0.7-0.7c-0.4,0-0.8-0.1-1.1-0.4C16.3,71.1,16.2,71,16,71c-0.2-0.6-0.3-1.2-0.4-1.9c-0.6-2.7-0.9-5.5-0.9-8.7
			c-0.1-2.1,0-4.2,0.1-6.2c0.1-2.2,0.2-4.5,0.1-6.8c0-1.4-0.1-2.8-0.2-4.2c-0.1-1.2-0.1-2.5-0.2-3.7c0.1,0.1,0.2,0.1,0.3,0.2
			c0.1,0,0.2,0.1,0.3,0.1c0.3,0,0.7-0.3,0.7-0.6c0.1-0.3-0.1-0.6-0.4-0.7c-0.4-0.2-0.8-0.4-1.1-0.5c0-1.3,0-2.4,0-3.4
			c1.1,1,2.9,1.6,5.5,1.6c0.3,0,0.6,0,1,0c2.7-0.1,4.9-0.2,7-0.2c2.3,0,4.4,0.1,6.5,0.2c1.8,0.1,3.7,0.2,5.9,0.2
			c2.3,0,4.7-0.1,7-0.1c2.3-0.1,4.7-0.1,7-0.1c0.9,0,1.8,0,2.7,0c2.5,0.1,4.8,0.2,6.9,0.3c0.4,0,0.8,0,1.2,0.1
			c2.2,0.1,4.8,0.2,6.5,1.6c2.2,1.8,2.1,5.2,1.9,8.2c0,0.5,0,1.1-0.1,1.6h-0.5c-1.4,0-2.9,0.1-4.3,0.1c-1.2,0.1-2.3,0.1-3.5,0.1
			c-2.6,0-4.7,0.1-6.5,2.3c-1.9,2.3-2.7,5.6-2.2,8.3c0.4,2,1.5,3.5,3.3,4.3c2.5,1.2,5.4,1.3,8.1,1.3h0.8h1.1v0.1
			c0,0.5,0.4,0.7,0.7,0.7S71,65,71,64.5v-0.1h1.7c-0.1,1.2-0.2,2.4-0.2,3.6c0,1.1-0.1,2.2-0.2,3.3c-0.3,3.9-3.1,4.9-7.1,5.3
			c-3.8,0.3-8,0.5-13.1,0.5C51.3,76.9,50.2,76.9,49.1,76.9z M44.5,15c1.3,0,2.2,1.4,2.9,2.6v0.1c-7.6,4.5-15.3,9.2-22.7,13.8
			l-0.1,0.1c-1.6,0-3.2-0.1-4.8-0.2c-0.2,0-1.4-0.1-2.5-0.3c5.5-3.4,10.3-6.3,14.8-9c2.6-1.6,5.3-3.1,7.9-4.7
			c0.3-0.2,0.7-0.5,1.2-0.8c0.9-0.6,1.9-1.4,2.8-1.5C44.2,15.1,44.4,15,44.5,15z M68.6,29.6c0,0.1,0.1,0.3,0.1,0.4s0.1,0.2,0.1,0.4
			c0.1,0.4,0.1,0.8,0,1.2h-0.1c-0.1,0-0.1,0-0.2,0c-0.3-0.5-1.3-2.2-1.3-2.2C67.8,29.5,68.2,29.6,68.6,29.6z M71.8,32.5
			c-0.1,0.6-0.2,1.1-0.2,1.7c0,0.5,0,1,0,1.5c0,0.2,0,0.4,0,0.6c-0.4-0.2-0.8-0.4-1.1-0.5c0-0.2,0-0.5,0.1-0.8
			c0.1-1,0.2-2.2-0.4-2.8c0.1-0.7,0.1-1.3,0-2c-0.1-0.5-0.2-1.3-0.6-1.6c-0.4-0.3-0.9-0.4-1.4-0.4H68c-0.4,0-0.8,0-1.2,0
			c-0.2,0-0.4,0-0.4,0.1L65,26.1c3.2,0,6.8,0.1,7,4.2C72,30.9,71.9,31.7,71.8,32.5z M37.8,31.8c1.5-0.8,3.3-1.8,5-2.8
			c0.6-0.4,1.2-0.7,1.8-1.1c0.5-0.3,1-0.6,1.5-0.9c0.3-0.2,0.4-0.3,0.6-0.4c0.2-0.2,0.3-0.2,0.4-0.2c0.1,0,0.2,0,0.4,0.1l0.6,0.2
			c1.7,0.6,2.9,1,4.2,1c1,0,1.9-0.2,3-0.8c1,1.7,2.3,3.2,3.6,4.8h-2.8c-3.2,0-6.3,0-9.5,0C43.7,31.7,40.8,31.7,37.8,31.8L37.8,31.8
			L37.8,31.8z M20.9,32.9c3,0.1,6.3,0.2,10.2,0.3c2.3,0,4.5,0,6.8,0c3.2,0,6.4,0,9.6,0H52c1.8,0,3.6,0,5.4,0c1.7,0,3.3,0,5,0
			c1.6,0,3.2,0,4.9,0.1c1.9,0,2,0.5,1.9,2.1c-2.4-0.5-5-0.6-7.6-0.6c-0.8,0-1.5,0-2.2,0c-2.5-0.1-4.8-0.1-6.9-0.1
			c-1.1,0-2.1,0-3.2,0c-1.3,0-2.6,0-3.8,0c-2.7,0-5.4,0-8.1-0.1c-2.6,0-5.4-0.1-8.1-0.1c-0.8,0-1.6,0-2.4,0s-1.7,0.1-2.6,0.2
			c-1.2,0.1-2.5,0.2-3.7,0.2c-1.8,0-3.2-0.3-4.1-0.8c-0.8-0.5-1.3-1.1-1.6-1.9c1.2,0.7,2.9,0.7,4.5,0.7h0.7
			C20.3,32.9,20.6,32.9,20.9,32.9z M72.7,62.8L72.7,62.8c-0.6,0-1.3,0-2,0.1c-1.1,0-2.2,0.1-3.4,0.1c-3.2,0-7.6-0.4-9-3.7
			c-0.7-1.5-0.7-3.2,0.1-5.3c1-2.9,2.9-4.3,5.8-4.4c1,0,2-0.1,3-0.1c1.8-0.1,3.7-0.2,5.5-0.2c0.7,0,1.3,0,2,0
			c3.2,0.7,2.8,4.9,2.5,7.6L77,57.5V58c-0.1,1.6-0.3,4.1-1.9,4.8c-0.2,0.1-0.5,0.1-0.9,0.1c-0.3,0-0.6,0-0.8,0
			C73.1,62.8,72.9,62.8,72.7,62.8z M55.2,14.7v0.1c1.5,0.1,3.1,2.9,4.2,4.8c0.3,0.5,0.5,0.9,0.7,1.2c2.1,3.4,4.3,6.9,6.7,10.8
			c-0.3,0-0.5,0-0.8,0c-0.4,0-0.8,0.1-1.2,0.1l0,0c-0.9,0-1.8,0-2.7,0h-1.3h-0.1l0.1-0.1L60.3,31c-1.5-1.8-2.9-3.4-4-5.5
			c-0.1-0.2-0.4-0.4-0.6-0.4c-0.1,0-0.2,0-0.4,0.1c-1.2,0.7-2.5,1-3.6,1c-1.5,0-2.8-0.6-3.7-1.7c-0.1-0.1-0.3-0.2-0.5-0.2
			c-0.1,0-0.3,0-0.4,0.1c-3.4,2.3-7.2,4.6-12,7c-0.1,0-0.2,0.1-0.2,0.2h-0.7c-1.9,0-3.9,0-5.8,0h-1.2c7.7-4.8,14.9-9.1,22-13.3
			l3-1.8c0.2-0.1,0.5-0.3,0.8-0.6c0.7-0.5,1.6-1.2,2.1-1.2L55.2,14.7L55.2,14.7z M18.4,26.2c1.2-0.3,2.5-0.4,3.6-0.4
			c0.5,0,0.9,0,1.3,0l-2.2,1.4l-0.9,0.5c-0.8,0-3.2,0.3-4.9,1C16,27.5,17.2,26.6,18.4,26.2z M15.5,30.1c0.1-0.2,0.5-0.5,2.1-0.7
			l-1.9,1.2C15.4,30.4,15.4,30.2,15.5,30.1z"/>
		<path class="st6" d="M65.7,52.1C65.6,52,65.5,52,65.4,52s-0.1,0-0.2,0h-0.1c-0.2,0-0.4,0-0.6,0c-2.1,0-4,1.3-4.6,3.2
			c-0.8,2.4,0.3,4.7,2.5,5.5c0.5,0.2,1.1,0.3,1.6,0.3c1.8,0,3.4-1.2,4.1-3.1c0.5-1.2,0.5-2.4,0.1-3.4C67.8,53.3,66.9,52.5,65.7,52.1
			z M64.1,59.4c-0.4,0-0.8-0.1-1.2-0.2c-1.3-0.5-2-1.6-1.7-2.9c0.3-1.5,1.6-3,3.3-3c0.2,0,0.4,0,0.5,0c0.9,0.3,1.6,0.9,1.9,1.7
			s0.2,1.8-0.3,2.7C66.1,58.8,65.2,59.4,64.1,59.4z"/>
		<path class="st6" d="M21.6,39.2c0-0.3-0.2-0.7-0.7-0.7l-2.3,0.1c-0.5,0-0.7,0.4-0.7,0.8c0,0.3,0.2,0.7,0.6,0.7l2.3-0.1
			C21.4,39.9,21.6,39.5,21.6,39.2z"/>
		<path class="st6" d="M28.1,39c0-0.4-0.3-0.6-0.7-0.6l-2.7,0.2c-0.5,0-0.7,0.5-0.7,0.8c0,0.4,0.3,0.6,0.6,0.6l2.7-0.2
			C27.8,39.8,28.1,39.4,28.1,39z"/>
		<path class="st6" d="M33.7,39.4c0-0.4-0.2-0.7-0.7-0.7c-0.2,0-0.5,0-0.7,0c-0.4,0-0.7,0-1.1,0c-0.5,0-0.7,0.4-0.7,0.8
			c0,0.3,0.2,0.7,0.7,0.7l0,0c0.4,0,0.7,0,1,0c0.2,0,0.7,0,0.7,0C33.4,40.1,33.7,39.7,33.7,39.4z"/>
		<path class="st6" d="M40.2,39.3c0-0.3-0.2-0.7-0.7-0.7l0,0c-0.7,0-1.4,0-2.1,0h-0.2c-0.5,0-0.7,0.4-0.7,0.7s0.2,0.7,0.7,0.7h0.2
			c0.7,0,1.4,0,2.1,0C40,40.1,40.2,39.7,40.2,39.3z"/>
		<path class="st6" d="M46.5,39.6c0-0.4-0.2-0.8-0.7-0.8c-0.7-0.1-1.5-0.1-2.2-0.1h-0.2c-0.5,0-0.7,0.4-0.7,0.7s0.2,0.7,0.7,0.7h0.2
			c0.7,0,1.5,0,2.2,0.1h0.1C46.3,40.2,46.5,39.9,46.5,39.6z"/>
		<path class="st6" d="M52.1,40.1L52.1,40.1c0.5,0,0.7-0.4,0.7-0.7c0-0.4-0.2-0.7-0.7-0.8c-0.2,0-0.5,0-0.7,0
			c-0.3,0-0.6-0.1-0.9-0.1c-0.3,0-0.5,0-0.8,0.1c-0.4,0.1-0.6,0.4-0.5,0.7c0,0.3,0.3,0.7,0.7,0.7c0.1,0,0.1,0,0.2,0
			c0.2,0,0.3-0.1,0.5-0.1c0.3,0,0.5,0,0.8,0.1C51.7,40.1,51.9,40.1,52.1,40.1z"/>
		<path class="st6" d="M55.7,40c0.4,0,0.8,0,1.2,0c0.6,0,1.3,0,1.9,0c0.5,0,0.7-0.4,0.7-0.8c0-0.3-0.2-0.7-0.7-0.7l0,0
			c-0.6,0-1.3,0-1.9,0c-0.4,0-0.8,0-1.3,0s-0.7,0.4-0.7,0.7C55,39.6,55.3,39.9,55.7,40z"/>
		<path class="st6" d="M62.8,39.9L62.8,39.9c0.2,0,0.5,0,0.7,0c0.6,0,1.1,0,1.7,0.1h0.1c0.4,0,0.6-0.3,0.6-0.6
			c0-0.4-0.2-0.8-0.7-0.8c-0.6-0.1-1.2-0.1-1.7-0.1c-0.2,0-0.5,0-0.7,0c-0.5,0-0.7,0.4-0.7,0.8C62.1,39.6,62.3,39.9,62.8,39.9z"/>
		<path class="st6" d="M69,42c0.1,0.2,0.3,0.4,0.6,0.4c0.3,0,0.5-0.2,0.7-0.4c0.1-0.2,0.1-0.5,0-0.7c-0.3-0.6-0.8-1.2-1.2-1.7
			c-0.1-0.1-0.3-0.2-0.5-0.2c-0.3,0-0.6,0.2-0.7,0.5s-0.1,0.5,0.2,0.8C68.4,41,68.7,41.5,69,42z"/>
		<path class="st6" d="M69.8,44.3c-0.2,0-0.4,0.1-0.5,0.2c-0.1,0.1-0.2,0.3-0.2,0.5l0.1,2c0,0.5,0.4,0.7,0.8,0.7
			c0.2,0,0.4-0.1,0.5-0.2c0.1-0.1,0.2-0.3,0.2-0.5l-0.1-2C70.5,44.6,70.1,44.3,69.8,44.3z"/>
		<path class="st6" d="M23.1,72.6l-1.7-0.1c-0.4,0-0.6,0.3-0.7,0.7c0,0.4,0.2,0.8,0.7,0.8l1.8,0.1c0.4,0,0.6-0.3,0.7-0.7
			C23.9,73,23.6,72.6,23.1,72.6z"/>
		<path class="st6" d="M29.7,72.5l-3.2-0.1c-0.5,0-0.7,0.4-0.7,0.7c0,0.4,0.2,0.7,0.7,0.8l3.2,0.1c0.5,0,0.7-0.4,0.7-0.7
			C30.4,72.9,30.2,72.6,29.7,72.5z"/>
		<path class="st6" d="M36.4,72.4L36.4,72.4c-0.5,0.1-1,0.1-1.5,0.1c-0.4,0-0.8,0-1.3-0.1c-0.4,0-0.6,0.3-0.6,0.6
			c0,0.4,0.2,0.8,0.7,0.8c0.4,0,0.8,0.1,1.2,0.1l0,0c0.5,0,1,0,1.5-0.1s0.7-0.5,0.7-0.8C37.1,72.7,36.8,72.4,36.4,72.4z"/>
		<path class="st6" d="M42.3,72.3l-2,0.1c-0.5,0-0.7,0.4-0.7,0.8c0,0.3,0.2,0.7,0.7,0.7l2-0.1c0.5,0,0.7-0.4,0.7-0.8
			C43,72.7,42.8,72.3,42.3,72.3z"/>
		<path class="st6" d="M48.9,72.6h-2.2c-0.5,0-0.7,0.4-0.7,0.7s0.2,0.7,0.7,0.7h2.2c0.5,0,0.7-0.4,0.7-0.7
			C49.6,72.9,49.4,72.6,48.9,72.6z"/>
		<path class="st6" d="M55.1,72.4c-0.1,0-0.1,0-0.2,0c-0.6,0.1-1.2,0.2-1.9,0.2c-0.3,0-0.7,0-1.1-0.1c-0.4,0-0.6,0.3-0.6,0.6
			c0,0.4,0.2,0.8,0.7,0.8c0.3,0,0.7,0.1,1,0.1c0.8,0,1.5-0.1,2.3-0.2c0.4-0.1,0.6-0.4,0.5-0.7C55.8,72.8,55.5,72.4,55.1,72.4z"/>
		<path class="st6" d="M60.8,72.5C60.7,72.5,60.7,72.5,60.8,72.5c-0.2,0-0.3,0-0.5,0c-0.3,0-0.7,0-1-0.1s-0.7-0.1-1-0.1
			c-0.2,0-0.3,0-0.5,0c-0.5,0-0.7,0.4-0.7,0.8c0,0.3,0.2,0.6,0.7,0.6l0,0c0.2,0,0.3,0,0.4,0c0.3,0,0.7,0,1,0.1s0.7,0.1,1,0.1
			c0.2,0,0.3,0,0.5,0c0.5,0,0.7-0.4,0.7-0.8C61.4,72.8,61.2,72.5,60.8,72.5z"/>
		<path class="st6" d="M65.8,73.6L65.8,73.6L65.8,73.6c0.5,0.1,0.8-0.3,0.8-0.6c0-0.4-0.2-0.7-0.8-0.8c-0.4,0-0.8,0.1-1.1,0.1
			c-0.3,0.1-0.7,0.1-1.1,0.1v0.1l0,0l-0.1-0.1c-0.5,0-0.7,0.4-0.7,0.7c0,0.4,0.2,0.7,0.7,0.8h0.1c0.4,0,0.8-0.1,1.1-0.1
			C65,73.8,65.4,73.7,65.8,73.6L65.8,73.6L65.8,73.6z"/>
		<path class="st6" d="M68.1,73.3L68.1,73.3c1.1-0.1,1.9-0.6,2.5-1.5c0.1-0.2,0.1-0.5,0-0.7s-0.4-0.4-0.7-0.4
			c-0.2,0-0.4,0.1-0.6,0.3c-0.3,0.4-0.7,0.7-1.2,0.8c-0.5,0-0.7,0.4-0.7,0.8C67.4,73.1,67.7,73.3,68.1,73.3z"/>
		<path class="st6" d="M70.1,69.2c0.3,0,0.7-0.2,0.8-0.7l0.2-1.6c0-0.2,0-0.4-0.1-0.5s-0.3-0.2-0.5-0.2c-0.3,0-0.7,0.2-0.8,0.7
			l-0.2,1.6c0,0.2,0,0.4,0.1,0.5S69.9,69.2,70.1,69.2z"/>
		<path class="st6" d="M74.6,52.3c0.2,0.4,0.3,1,0.3,1.5c0,0.3,0.1,0.5,0.1,0.8c0.1,0.3,0.3,0.5,0.6,0.5c0.2,0,0.5-0.1,0.6-0.3
			s0.2-0.4,0.2-0.6c-0.1-0.2-0.1-0.5-0.1-0.8c-0.1-0.8-0.2-1.7-0.8-2.3c-0.8-0.8-1.8-1-2.7-1c-0.2,0-0.4,0-0.6,0
			c-0.5,0-0.7,0.4-0.7,0.8c0,0.3,0.2,0.7,0.7,0.7h0.1c0.2,0,0.4,0,0.6,0C73.5,51.6,74.2,51.7,74.6,52.3z"/>
		<path class="st6" d="M75.4,56c-0.4,0-0.7,0.2-0.7,0.8c0,0.5,0.4,0.7,0.7,0.7c0.2,0,0.4-0.1,0.5-0.2c0.2-0.1,0.2-0.3,0.2-0.6
			C76.1,56.2,75.8,56,75.4,56z"/>
		<path class="st6" d="M49.8,21.3c-0.1-0.2-0.3-0.3-0.6-0.3s-0.6,0.2-0.7,0.4c-0.1,0.2-0.1,0.5,0,0.7c0.6,0.9,1.1,1.8,1.7,2.7
			c0.1,0.2,0.3,0.3,0.6,0.3s0.5-0.2,0.7-0.4c0.1-0.2,0.1-0.5,0-0.7C50.9,23.1,50.3,22.2,49.8,21.3z"/>
		<path class="st6" d="M52.3,18.9c-0.3,0-0.6,0.1-0.8,0.3l0.1,0.1l0,0h-0.2c-0.8,0.7-0.8,1.7-0.1,2.8c0.4,0.6,1.1,1.5,2,1.5
			c0.2,0,0.5-0.1,0.7-0.2c0.4-0.2,0.7-0.5,0.8-1c0.2-0.6,0-1.3-0.4-2C54,19.9,53.3,18.9,52.3,18.9z M52.2,21c-0.2-0.4-0.2-0.4,0-0.6
			h0.1c0.3,0,0.6,0.5,0.8,0.8c0.1,0.2,0.2,0.4,0.3,0.6c0,0.1,0,0.2-0.1,0.3c-0.1,0-0.2,0-0.2-0.1C52.7,21.7,52.4,21.3,52.2,21z"/>
		<path class="st6" d="M54.6,17.4c-0.8,0.7-0.8,1.7-0.1,2.8c0.4,0.6,1.1,1.5,2,1.5c0.2,0,0.5-0.1,0.7-0.2c0.4-0.2,0.7-0.5,0.8-1
			c0.2-0.6,0-1.3-0.4-2c-0.3-0.5-1-1.5-2-1.5c-0.3,0-0.6,0.1-0.8,0.3L54.6,17.4z M55.5,18.5C55.6,18.5,55.6,18.5,55.5,18.5
			c0.4,0,0.7,0.5,0.8,0.8c0.1,0.2,0.2,0.4,0.3,0.6c0,0.1,0,0.2-0.1,0.3c-0.1,0-0.1,0-0.2-0.1c-0.3-0.2-0.6-0.7-0.7-1
			C55.3,18.7,55.3,18.7,55.5,18.5z"/>
	</g>
</g>
<g id="Layer_3" class="st0">
	<path class="st7" d="M58.6,81.7H11.5c-1.8,0-3.3-1.5-3.3-3.3V17.6c0-1.8,1.5-3.3,3.3-3.3h47.1c1.8,0,3.3,1.5,3.3,3.3v60.7
		C61.9,80.2,60.4,81.7,58.6,81.7z"/>
	<polygon class="st8" points="45.9,75.7 14,75.7 14,20.3 56,20.3 56,67.1 	"/>
	<rect x="22.2" y="11.9" class="st7" width="25.7" height="10.9"/>
	<g class="st2">
		<rect x="18.2" y="28.4" class="st9" width="6.2" height="6.2"/>
		<rect x="18.2" y="40.4" class="st9" width="6.2" height="6.2"/>
		<rect x="18.2" y="52.4" class="st9" width="6.2" height="6.2"/>
		<line class="st10" x1="28.4" y1="29.7" x2="47.3" y2="29.7"/>
		<line class="st10" x1="28.4" y1="33.3" x2="50.9" y2="33.3"/>
		<line class="st10" x1="28.4" y1="41.7" x2="47.3" y2="41.7"/>
		<line class="st10" x1="28.4" y1="45.3" x2="50.9" y2="45.3"/>
		<line class="st10" x1="28.4" y1="53.7" x2="47.3" y2="53.7"/>
		<line class="st10" x1="28.4" y1="57.3" x2="50.9" y2="57.3"/>
		<rect x="18.2" y="64.1" class="st9" width="6.2" height="6.2"/>
		<line class="st10" x1="28.4" y1="65.4" x2="47.3" y2="65.4"/>
		<line class="st10" x1="28.4" y1="69" x2="50.9" y2="69"/>
	</g>
	<polygon class="st8" points="56,67.1 45.9,75.7 45.9,67.1 	"/>
	<g class="st2">
		<rect x="70.4" y="23.9" class="st11" width="9" height="42"/>
		<polygon class="st9" points="70.4,65.9 74.9,73.9 79.4,65.9 		"/>
		<line class="st10" x1="74" y1="71.7" x2="75.9" y2="71.7"/>
		<g>
			<path class="st11" d="M74.9,19.3c-2.5,0-4.5,2-4.5,4.5h9C79.4,21.3,77.4,19.3,74.9,19.3z"/>
		</g>
		<polyline class="st10" points="70.4,27.8 83.2,27.8 83.2,42.6 		"/>
		<path class="st9" d="M75,60.7L75,60.7c-1,0-1.8-0.8-1.8-1.8v-9.3c0-1,0.8-1.8,1.8-1.8l0,0c1,0,1.8,0.8,1.8,1.8v9.3
			C76.8,59.9,76,60.7,75,60.7z"/>
	</g>
</g>
<g id="Layer_4" class="st0">
	<polygon class="st12" points="67.7,81.8 7.6,81.8 1.7,76.2 1.7,38 79.5,38 79.5,70.9 	"/>
	<polygon class="st8" points="67.7,81.8 79.5,70.9 67.7,70.9 	"/>
	<path class="st7" d="M7.6,32.4c-3.2,0-5.9,2.5-5.9,5.6v36.6l11.8,1.5V38C13.5,34.9,10.8,32.4,7.6,32.4z"/>
	<ellipse class="st7" cx="7.6" cy="76.2" rx="5.9" ry="5.6"/>
	<path class="st7" d="M7.6,70.6v5.6c-1.4-0.7-5.4-0.6-5.3,2.5"/>
	<polyline class="st7" points="80,13.7 61,48.6 56.2,46.3 75.3,11.4 	"/>
	<polygon class="st8" points="56.2,46.3 56.3,51.6 61,48.6 	"/>
	<line class="st12" x1="22.1" y1="51.7" x2="54.9" y2="51.7"/>
	<rect x="22" y="57.2" class="st8" width="65.7" height="9.3"/>
	<line class="st12" x1="30.2" y1="57.2" x2="30.2" y2="61.4"/>
	<line class="st12" x1="38.5" y1="57.2" x2="38.5" y2="61.4"/>
	<line class="st12" x1="46.8" y1="57.2" x2="46.8" y2="61.4"/>
	<line class="st12" x1="55.1" y1="57.2" x2="55.1" y2="61.4"/>
	<line class="st12" x1="63" y1="57.2" x2="63" y2="61.4"/>
	<line class="st12" x1="71.3" y1="57.2" x2="71.3" y2="61.4"/>
	<line class="st12" x1="79.5" y1="57.2" x2="79.5" y2="61.4"/>
</g>
<g id="Layer_5" class="st0">
	<g class="st2">
		<path d="M86.1,37.7h-3.8c-0.7,0-1.2,0.4-1.5,1l-8.2,21.1H58.9c-0.7-3.2-3.6-5.6-7-5.6c-0.2,0-0.3,0-0.5,0l-1.8-5.9l24.3-3.8
			c0.9-0.1,1.4-0.9,1.3-1.8c-0.1-0.9-0.9-1.5-1.8-1.3l-26.1,4.1c-0.5,0.1-0.8,0.3-1.1,0.7s-0.3,0.9-0.2,1.3l2.3,7.6
			c-2.2,1.2-3.6,3.6-3.6,6.2c0,3.9,3.2,7.2,7.2,7.2c3.4,0,6.2-2.4,7-5.6h13.9l1.7,3.1c0.3,0.5,0.8,0.8,1.4,0.8
			c0.3,0,0.5-0.1,0.8-0.2c0.8-0.4,1-1.4,0.6-2.1l-1.8-3.2l8-20.4h2.7c0.9,0,1.6-0.7,1.6-1.6C87.7,38.4,87,37.7,86.1,37.7z
			 M51.9,65.3c-2.2,0-4-1.8-4-4s1.8-4,4-4s4,1.8,4,4S54.1,65.3,51.9,65.3z"/>
		<path d="M41.2,65.3H23.9v-6.5h11.8c0.9,0,1.6-0.7,1.6-1.6c0-0.9-0.7-1.6-1.6-1.6h-2.1v-6.8h7.7c0.9,0,1.6-0.7,1.6-1.6
			c0-0.9-0.7-1.6-1.6-1.6H29.7c-0.9,0-1.6,0.7-1.6,1.6c0,0.9,0.7,1.6,1.6,1.6h0.6v6.8H15.4v-6.8h9.5c0.9,0,1.6-0.7,1.6-1.6
			c0-0.9-0.7-1.6-1.6-1.6h-1v-6.8h14.5c0.9,0,1.6-0.7,1.6-1.6c0-0.9-0.7-1.6-1.6-1.6h-4.8v-6.8h15.8v6.8h-5.6
			c-0.9,0-1.6,0.7-1.6,1.6c0,0.9,0.7,1.6,1.6,1.6H59c0.9,0,1.6-0.7,1.6-1.6c0-0.9-0.7-1.6-1.6-1.6h-6.4v-6.8h15.8v3
			c0,0.9,0.7,1.6,1.6,1.6s1.6-0.7,1.6-1.6v-3H77v3.3c0,0.9,0.7,1.6,1.6,1.6s1.6-0.7,1.6-1.6V17.7c0-0.9-0.7-1.6-1.6-1.6h-7.7
			c-0.9,0-1.6,0.7-1.6,1.6s0.7,1.6,1.6,1.6h6.2v6.5H61.7v-6.5H64c0.9,0,1.6-0.7,1.6-1.6s-0.7-1.6-1.6-1.6H5.3
			c-0.9,0-1.6,0.7-1.6,1.6v49.2c0,0.9,0.7,1.6,1.6,1.6h35.9c0.9,0,1.6-0.7,1.6-1.6S42.1,65.3,41.2,65.3z M30.4,35.7h-15v-6.8h14.9
			C30.3,28.9,30.3,35.7,30.4,35.7z M42.8,19.3h15.8v6.5H42.8V19.3z M23.9,19.3h15.8v6.5H23.9V19.3z M6.9,19.3h13.8v6.5H6.9V19.3z
			 M6.9,28.9h5.4v6.8H6.9V28.9z M6.9,38.9h13.8v6.8H6.9V38.9z M6.9,48.9h5.4v6.8H6.9V48.9z M20.7,65.3H6.9v-6.5h13.8V65.3z"/>
		<path d="M43,55.7h-2.4c-0.9,0-1.6,0.7-1.6,1.6c0,0.9,0.7,1.6,1.6,1.6H43c0.9,0,1.6-0.7,1.6-1.6S43.9,55.7,43,55.7z"/>
		<path d="M69.8,34.7c-0.9,0-1.6,0.7-1.6,1.6v1.3c0,0.9,0.7,1.6,1.6,1.6s1.6-0.7,1.6-1.6v-1.3C71.4,35.4,70.7,34.7,69.8,34.7z"/>
	</g>
</g>
<g id="Layer_1_1_" class="st0">
	<polyline class="st13" points="74.4,20.8 86,20.8 86,76.9 62.1,76.9 	"/>
	<line class="st13" x1="53.1" y1="20.8" x2="66.7" y2="20.8"/>
	<line class="st13" x1="31.8" y1="20.8" x2="45" y2="20.8"/>
	<polyline class="st13" points="28.7,76.9 4.5,76.9 4.5,20.8 23.7,20.8 	"/>
	<line class="st14" x1="23.7" y1="13.4" x2="23.7" y2="28.4"/>
	<line class="st14" x1="45.2" y1="13.4" x2="45.2" y2="28.4"/>
	<line class="st14" x1="66.7" y1="13.4" x2="66.7" y2="28.4"/>
	<line class="st15" x1="4.5" y1="37.2" x2="86" y2="37.2"/>
	<ellipse class="st16" cx="45.4" cy="64.9" rx="16.7" ry="14.4"/>
	<ellipse class="st17" cx="45.4" cy="64.9" rx="2" ry="1.9"/>
	<line class="st13" x1="45.1" y1="54.1" x2="45.1" y2="62.1"/>
	<line class="st13" x1="48" y1="66.3" x2="53.1" y2="68.9"/>
</g>
<g id="Layer_6" class="st0">
	<g class="st2">
		<path class="st18" d="M82.7,46.8c-0.3-0.4-0.7-0.6-1.2-0.6c-0.4,0-0.8,0.1-1.2,0.2c-0.4,0.1-0.7,0.2-1.1,0.2c-0.1,0-0.2,0-0.2,0
			c-2.2-0.4-2.8-2.8-3.2-5c-0.2-0.8-0.3-1.5-0.5-2.1c-1.2-3.4-4-6.3-7.5-8.1c0.6-2.9,1-7.9-2.2-9.4c-0.3-0.1-0.5-0.2-0.8-0.2
			c-0.8,0-1.4,0.5-2,1.1L62.6,23c-1.7,1.4-3,2.8-4.3,4.3l-0.6-0.2c-2-0.6-3.9-1.2-6-1.5c1.2-1.5,2.1-3.4,2.5-5.4
			c0.4-2.3-0.2-4.6-1.7-6.6c-1.7-2.3-4.4-3.7-7-3.7h-0.2c-6.3,0.3-10.1,3.4-11,9.1c-0.4,2.3,0.3,4.6,1.9,6.5
			C29.7,27,21,30,15.7,37.4h-0.1c-1-0.4-1.9-1.2-2.5-2.3l0,0c0.1,0,0.2-0.1,0.4-0.1c1.5-0.7,3.2-2.1,3.6-3.7
			c0.2-0.9,0.1-1.7-0.5-2.5c-0.7-1.1-1.6-1.3-2.3-1.3c-1.6,0-3.2,1.5-3.6,3.3c-0.2,1-0.1,2,0.1,3.1c-0.1,0-0.1,0-0.2,0
			c-1.5,0-2.7-0.7-3.4-1.9c-0.1-0.3-0.4-0.4-0.6-0.4c-0.3,0-0.6,0.2-0.7,0.5c-0.1,0.2-0.1,0.5,0,0.8c0.9,1.7,2.7,2.7,4.8,2.7
			c0.2,0,0.5,0,0.8,0c0.8,1.5,2,2.7,3.4,3.3c-1,1.6-1.7,3.2-2.3,5c-2.4,7.4-0.2,14.5,1.9,21.4c1.5,4.8,3,9.8,3,14.9
			c0,0.2,0.1,0.4,0.2,0.6s0.4,0.3,0.6,0.3c0.3,0,0.5-0.2,0.7-0.4c0.5-0.9,1.2-1.5,2-2.2c0.4-0.3,0.7-0.6,1-0.9
			c0.5,0.2,1.3,1.5,2,2.6c0.4,0.6,0.8,1.2,1,1.4c0.1,0.2,0.3,0.2,0.5,0.2c0.4,0,0.8-0.4,0.8-0.8c0.2-2,0.8-3.9,1.4-5.8
			c0.3-1,0.6-1.9,0.8-2.9c4.6,1.2,9.5,1.8,14,1.8c4.1,0,7.8-0.5,11.1-1.4c0.6,2.1,1.2,4.7,1.5,7.3c0.1,0.5,0.4,0.8,0.8,0.8
			c0.2,0,0.4-0.1,0.5-0.2c0.6-0.6,1.2-1.2,1.8-1.9c0,0,0.1-0.1,0.2-0.2c0.2-0.2,0.5-0.5,0.7-0.8c0.1,0.1,0.2,0.3,0.4,0.4
			c0.1,0.1,0.2,0.2,0.3,0.3c0.8,1,1.7,1.8,2.5,2.6c0.2,0.1,0.3,0.2,0.5,0.2c0.4,0,0.8-0.3,0.8-0.8v-0.7c0.2-4.3,0.3-8.7,3.9-11.4
			c1.1-0.8,2.1-1.4,3.1-2.1c2.3-1.4,4.5-2.8,6.2-5.5c3.2,0,4.2-2.3,4.8-4.8c0.1-0.3,0.2-0.8,0.4-1.3C82.7,51.9,83.8,48.2,82.7,46.8z
			 M75.8,59.2c-1.4,2.5-3.7,4.5-6.6,6c-1.7,0.9-3.5,1.9-4.8,3.8c-1.8,2.7-2.1,5.9-2.2,9.2c-0.2-0.2-0.4-0.5-0.6-0.7
			c-0.6-0.7-1.2-1.4-1.8-2c-0.2-0.2-0.4-0.2-0.6-0.2c-0.2,0-0.4,0.1-0.5,0.2c-0.4,0.5-0.8,1-1.2,1.5c-0.3,0.3-0.5,0.7-0.8,1
			c-0.3-2.1-0.8-4.3-1.5-6.8c-0.1-0.4-0.4-0.6-0.8-0.6c-0.1,0-0.1,0-0.2,0c-3.3,1.1-7.1,1.6-11.4,1.6c-4.7,0-9.8-0.7-14.4-1.9
			c-0.1,0-0.1,0-0.2,0c-0.4,0-0.7,0.3-0.8,0.6c-0.3,1.3-0.6,2.5-1,3.8c-0.4,1.4-0.8,2.8-1.1,4.2c-0.4-0.6-0.8-1.1-1.2-1.7
			c-0.4-0.6-0.8-1.1-1.2-1.6c-0.1-0.2-0.3-0.3-0.5-0.3s-0.4,0.1-0.6,0.2c-0.4,0.4-0.8,0.7-1.2,1c-0.5,0.4-1,0.8-1.4,1.3
			c-0.3-4.3-1.7-8.5-3-12.6c-1.8-5.7-3.6-11.5-2.8-17.6c2.1-15,17.6-19.3,24.3-20.4c1.5,1.3,3.4,2,5.2,2.2c0.3,0,0.7,0,1,0
			c2.4,0,4.6-0.8,6.4-2.2c2.4,0.1,4.5,0.8,6.7,1.5c0.5,0.1,1,0.3,1.5,0.5c0.1,0,0.1,0,0.2,0c0.1,0,0.3,0,0.4-0.2l0.1-0.1
			c1.4-1.7,3-3.6,4.8-4.8c0.4-0.3,0.7-0.4,1-0.4s0.6,0.1,0.8,0.4c1.1,1.5,0.6,6.2,0.3,7.6c-0.1,0.4,0,0.7,0.4,0.9
			c3.9,1.8,6.6,4.9,7.7,8.8c0.1,0.5,0.2,1,0.3,1.6c0.3,1.7,0.7,3.6,1.8,4.5c0.8,0.6,1.7,0.7,2.5,0.7h0.3c0.2,0,0.4,0,0.7-0.1
			c0.3,0,0.6-0.1,0.9-0.1c0.4,0,0.7,0.1,0.9,0.3c0.1,0.2-0.2,1.2-0.3,1.6c0,0.2-0.1,0.3-0.1,0.3c-0.1,0.4-0.2,0.9-0.2,1.5
			c-0.5,3.1-1.1,7-4.2,7c-0.1,0-0.2,0-0.3,0C76.1,58.8,75.9,59,75.8,59.2z M52.3,21.4c-1.3,3.9-4.6,6.4-8.4,6.4
			c-0.7,0-1.3-0.1-2-0.2c-2.4-0.5-4.3-2.1-5.2-4.2s-0.8-4.4,0.2-6.7c1.8-3.8,4.7-4.7,8.5-4.9h0.2c2.3,0,4.5,1.2,5.9,3.3
			C52.7,17,53,19.2,52.3,21.4z M12.9,29.9c0.5-0.5,1-0.6,1.3-0.6c0.5,0,1,0.3,1.2,0.8s0.1,1.1-0.4,1.7c-0.6,0.8-1.5,1.4-2.6,1.7l0,0
			c0-0.1-0.1-0.1-0.1-0.2C12,31.7,12.2,30.6,12.9,29.9z"/>
		<path class="st18" d="M66.7,41L66.7,41c-1.8,0-2.8,1.8-2.9,3.4c0,0.2,0,0.4,0.2,0.6c0.1,0.2,0.3,0.2,0.6,0.2
			c0.4,0,0.8-0.3,0.9-0.8c0.1-0.9,0.6-1.8,1.4-1.8c0.1,0,0.2,0,0.3,0c0.8,0.2,1.2,1.2,1.2,2c0.1,0.4,0.3,0.6,0.7,0.6
			c0.2,0,0.5-0.1,0.7-0.3s0.2-0.5,0.2-0.7C69.6,42.6,68.5,41,66.7,41z"/>
		<path class="st18" d="M45,13.9L45,13.9c-2.7,0.1-6,1.2-6.7,5.6c-0.2,1.4,0.2,2.8,1.1,3.9c1.1,1.4,2.9,2.3,4.6,2.3l0,0
			c3.5,0,6.2-2.6,6.4-6.2c0.1-1.3-0.4-2.6-1.3-3.7C48,14.6,46.5,13.9,45,13.9z M45,15.6c1.2,0,2.3,0.7,3.1,1.7
			c0.7,1,0.8,2.2,0.5,3.3c-0.7,2.1-2.3,3.4-4.5,3.4c-0.1,0-0.2,0-0.4,0c-1.3-0.1-2.6-0.9-3.3-1.9c-0.4-0.6-0.8-1.6-0.4-2.9
			C40.7,16.8,42.2,15.7,45,15.6L45,15.6z"/>
		<path class="st18" d="M46.4,30.5c-0.4,0-0.7,0-0.9,0c-0.5,0-1.6-0.1-3-0.1c-4.7,0-10.4,0.6-10.8,3.3c-0.1,0.5,0,1,0.3,1.4
			c0.4,0.5,1.1,0.9,1.8,1c0.4,0,0.8,0.1,1.2,0.1c1.3,0,2.7-0.2,4-0.4c1.2-0.2,2.5-0.4,3.6-0.4c0.2,0,0.4,0,0.7,0
			c2.1,0,4.2,0.2,6.2,0.4c1.4,0.2,2.9,0.3,4.4,0.4c0.2,0,0.3,0,0.5,0c1,0,2.4-0.2,2.7-1.8c0.1-0.6,0-1.2-0.4-1.6
			C55,30.6,49,30.5,46.4,30.5z M48.8,34c-1.9-0.2-3.6-0.3-5.3-0.3c-0.3,0-0.6,0-1,0c-1.6,0-3.4,0.1-5.1,0.3c-0.1,0-0.3,0.1-0.6,0.1
			c-0.6,0.1-1.5,0.3-2.2,0.3s-0.8-0.2-0.9-0.2c-0.1-0.1,0-0.3,0.2-0.6c0.4-0.5,2.1-0.7,3-0.8c0.3,0,0.5,0,0.6-0.1
			c2-0.3,4-0.5,6.1-0.5c0.6,0,1.2,0,1.7,0h1c1.5,0.1,3.1,0.1,4.6,0.4H51c2.6,0.5,3.3,1,3.3,1.3c0,0.2-0.2,0.5-0.5,0.7
			c-0.1,0.1-0.3,0.1-0.7,0.1c-0.9,0-2.3-0.3-3.3-0.5C49.5,34.1,49.1,34,48.8,34z"/>
		<path class="st18" d="M19.1,43.1c-0.3,0-0.5,0.2-0.6,0.4c-2.1,3.9-2.5,8.4-1.2,12.7c0.1,0.4,0.4,0.6,0.8,0.6
			c0.3,0,0.5-0.1,0.7-0.3c0.1-0.2,0.2-0.5,0.1-0.7c-1.2-3.9-0.8-7.8,1.1-11.4c0.1-0.3,0.1-0.6,0-0.8C19.7,43.2,19.5,43.1,19.1,43.1z
			"/>
		<path class="st18" d="M21.3,39.6c-0.2,0-0.4,0.1-0.6,0.3c-0.1,0.2-0.2,0.4-0.2,0.6c0,0.4,0.3,0.8,0.8,0.8c0.2,0,0.4-0.1,0.6-0.3
			c0.1-0.2,0.2-0.4,0.2-0.6C22,40.1,21.8,39.6,21.3,39.6z"/>
	</g>
</g>
<g id="Layer_11" class="st0">
	<g class="st2">
		<path class="st6" d="M63.5,28.8c0-2.5-2-4.5-4.5-4.5s-4.5,2-4.5,4.5v0.1c0,1.2,0.6,2.6,1.9,4c0.9,1,1.7,1.7,1.8,1.7l0.8,0.7
			l0.8-0.7c0,0,0.9-0.7,1.8-1.7C62.8,31.5,63.5,30.1,63.5,28.8L63.5,28.8z M62.1,28.9c0,1.3-1.5,3.4-3.1,4.9
			c-1.5-1.5-3.1-3.6-3.1-4.9v-0.2c0-1.7,1.4-3.1,3.1-3.1c1.7,0,3.1,1.4,3.1,3.1V28.9z"/>
		<path class="st6" d="M63.5,44.8c0.7,0,1.3,0.6,1.3,1.3s-0.6,1.3-1.3,1.3s-1.3-0.6-1.3-1.3S62.8,44.8,63.5,44.8z"/>
		<path class="st6" d="M63.5,49.2c0.7,0,1.3,0.6,1.3,1.3s-0.6,1.3-1.3,1.3s-1.3-0.6-1.3-1.3S62.8,49.2,63.5,49.2z"/>
		<path class="st6" d="M63.5,53.6c0.7,0,1.3,0.6,1.3,1.3s-0.6,1.3-1.3,1.3s-1.3-0.6-1.3-1.3S62.8,53.6,63.5,53.6z"/>
		<path class="st6" d="M54.5,36c0.7,0,1.3,0.6,1.3,1.3s-0.6,1.3-1.3,1.3s-1.3-0.6-1.3-1.3S53.8,36,54.5,36z"/>
		<path class="st6" d="M59,44.8c0.7,0,1.3,0.6,1.3,1.3s-0.6,1.3-1.3,1.3s-1.3-0.6-1.3-1.3S58.3,44.8,59,44.8z"/>
		<path class="st6" d="M59,36c0.7,0,1.3,0.6,1.3,1.3s-0.6,1.3-1.3,1.3s-1.3-0.6-1.3-1.3S58.3,36,59,36z"/>
		<path class="st6" d="M54.5,44.8c0.7,0,1.3,0.6,1.3,1.3s-0.6,1.3-1.3,1.3s-1.3-0.6-1.3-1.3S53.8,44.8,54.5,44.8z"/>
		<path class="st6" d="M54.5,40.4c0.7,0,1.3,0.6,1.3,1.3S55.2,43,54.5,43s-1.3-0.6-1.3-1.3S53.8,40.4,54.5,40.4z"/>
		<path class="st6" d="M59,53.6c0.7,0,1.3,0.6,1.3,1.3s-0.6,1.3-1.3,1.3s-1.3-0.6-1.3-1.3S58.3,53.6,59,53.6z"/>
		<path class="st6" d="M54.5,53.6c0.7,0,1.3,0.6,1.3,1.3s-0.6,1.3-1.3,1.3s-1.3-0.6-1.3-1.3S53.8,53.6,54.5,53.6z"/>
		<path class="st6" d="M50.1,53.6c0.7,0,1.3,0.6,1.3,1.3s-0.6,1.3-1.3,1.3s-1.3-0.6-1.3-1.3S49.4,53.6,50.1,53.6z"/>
		<path class="st6" d="M45.6,53.6c0.7,0,1.3,0.6,1.3,1.3s-0.6,1.3-1.3,1.3s-1.3-0.6-1.3-1.3S44.9,53.6,45.6,53.6z"/>
		<path class="st6" d="M41.2,53.6c0.7,0,1.3,0.6,1.3,1.3s-0.6,1.3-1.3,1.3s-1.3-0.6-1.3-1.3S40.5,53.6,41.2,53.6z"/>
		<path class="st6" d="M41.2,49.2c0.7,0,1.3,0.6,1.3,1.3s-0.6,1.3-1.3,1.3s-1.3-0.6-1.3-1.3S40.5,49.2,41.2,49.2z"/>
		<g>
			<path class="st6" d="M40.8,24.6c-4.7,0-8.6,3.9-8.6,8.6c0,3.4,1.4,6.8,4.1,9.9c2,2.3,4,3.6,4.1,3.7c0.1,0.1,0.3,0.1,0.4,0.1
				c0.2,0,0.3,0,0.4-0.1c0.1,0,2.1-1.4,4.1-3.7c2.7-3.1,4.1-6.5,4.1-9.9C49.3,28.4,45.5,24.6,40.8,24.6L40.8,24.6z M40.8,45.1
				c-1.6-1.2-7-5.7-7-12c0-3.9,3.2-7,7-7s7,3.2,7,7C47.8,39.4,42.3,43.9,40.8,45.1L40.8,45.1z"/>
			<path class="st6" d="M40.8,29.7c-1.9,0-3.4,1.5-3.4,3.4s1.5,3.4,3.4,3.4s3.4-1.5,3.4-3.4C44.2,31.3,42.6,29.7,40.8,29.7
				L40.8,29.7z M40.8,35c-1,0-1.9-0.8-1.9-1.9s0.8-1.9,1.9-1.9s1.9,0.8,1.9,1.9C42.6,34.2,41.8,35,40.8,35L40.8,35z"/>
		</g>
	</g>
</g>
<g id="Layer_13" class="st0">
	<g class="st2">
		<path class="st6" d="M50.7,23.1c-8.9,0-16.1,7.2-16.1,16.1c0,8.8,7.1,16.2,16.1,16.2c8.9,0,16.2-7.3,16.2-16.2
			C66.9,30.3,59.5,23.1,50.7,23.1L50.7,23.1z M50.7,53.6c-7.8,0-14.2-6.4-14.2-14.3c0-7.8,6.4-14.2,14.2-14.2
			C58.6,25,65,31.4,65,39.2C65,47.1,58.6,53.6,50.7,53.6L50.7,53.6z"/>
		<path class="st6" d="M50.7,28.8c-5.7,0-10.4,4.7-10.4,10.4c0,5.8,4.7,10.5,10.4,10.5c2.3,0,4.7-0.8,6.5-2.1
			c0.4-0.3,0.5-0.9,0.2-1.3c-0.3-0.4-0.9-0.5-1.3-0.2c-1.5,1.1-3.4,1.8-5.3,1.8c-4.7,0-8.5-3.9-8.5-8.7c0-4.7,3.8-8.5,8.5-8.5
			c4.8,0,8.6,3.8,8.6,8.5v1c0,1-0.8,1.9-1.9,1.9s-1.9-0.8-1.9-1.9c0-0.5,0-4.2,0-4.7s-0.4-1-1-1c-0.5,0-1,0.4-1,1v0.1
			c-0.8-0.7-1.9-1-3-1c-2.6,0-4.7,2.1-4.7,4.7S48,44,50.6,44c1.4,0,2.7-0.6,3.6-1.6c0.7,1,1.8,1.6,3.1,1.6c2.1,0,3.8-1.7,3.8-3.8v-1
			C61.2,33.5,56.4,28.8,50.7,28.8L50.7,28.8z M50.7,42.1c-1.6,0-2.8-1.3-2.8-2.8s1.3-2.8,2.8-2.8c1.6,0,3,1.3,3,2.8
			S52.3,42.1,50.7,42.1L50.7,42.1z"/>
	</g>
</g>
<g id="Layer_12">
	<g>
		<path d="M46,35.3c-0.8,0.6-0.9,1.6-0.3,2.4c0.6,0.8,1.6,0.9,2.4,0.3c0.5-0.4,1.9-1.5,1.7-3.4c-0.1-1.1-1.2-2.7-2.1-3.8
			c-1.3-1.6-2.4-2.6-3.3-2.8c-0.8-0.3-1.7-0.2-2.5,0.1c-1.7,0.7-3,1.8-3.5,3.3c-0.6,1.4-0.5,3,0.3,4.6c1.8,3.8,4.1,7,7.1,9.6l0,0
			c2.9,2.6,6.4,4.6,10.4,6c0.8,0.3,1.5,0.4,2.2,0.4c0.9,0,1.7-0.2,2.5-0.6c1.4-0.7,2.4-2.1,2.9-3.9c0.2-0.9,0.2-1.7-0.1-2.5
			c-0.4-0.9-1.4-1.9-3.2-3c-1.2-0.8-2.9-1.7-4-1.7l0,0c-1.9,0-2.8,1.5-3.1,2.1c-0.5,0.8-0.2,1.8,0.6,2.3s1.8,0.2,2.3-0.6
			c0.1-0.2,0.2-0.3,0.3-0.4c1,0.3,3.5,2,4.1,2.7c0,0,0,0.1,0,0.2c-0.2,0.6-0.5,1.4-1.2,1.8c-0.7,0.3-1.4,0.2-2,0
			c-3.5-1.2-6.6-3-9.2-5.3l0,0c-2.6-2.3-4.7-5.2-6.3-8.6c-0.2-0.5-0.5-1.3-0.2-2s1-1.2,1.6-1.4c0.1,0,0.1,0,0.2,0
			c0.8,0.4,2.7,2.8,3.1,3.7C46.3,35,46.2,35.2,46,35.3L46,35.3z"/>
	</g>
</g>
</svg>
