<?xml version="1.0" encoding="utf-8"?>
<!-- Generator: Adobe Illustrator 24.3.0, SVG Export Plug-In . SVG Version: 6.00 Build 0)  -->
<svg version="1.1" id="Layer_1" xmlns="http://www.w3.org/2000/svg" xmlns:xlink="http://www.w3.org/1999/xlink" x="0px" y="0px"
	 viewBox="0 0 90 90" style="enable-background:new 0 0 90 90;" xml:space="preserve">
<style type="text/css">
	.st0{fill:#010101;}
</style>
<g id="Layer_12">
	<g>
		<g>
			<path class="st0" d="M63.8,22.3c-2.3,0-4.2,1.9-4.2,4.1s1.9,4.1,4.2,4.1s4.2-1.9,4.2-4.1S66.1,22.3,63.8,22.3z"/>
			<path class="st0" d="M45.4,27.6C35.8,27.6,28,35.4,28,45s7.8,17.4,17.4,17.4S62.8,54.7,62.8,45S55,27.6,45.4,27.6z M45.4,56.2
				c-6.2,0-11.2-5-11.2-11.2s5-11.2,11.2-11.2s11.2,5,11.2,11.2S51.5,56.2,45.4,56.2z"/>
			<path class="st0" d="M59.2,80.4H31c-11.7,0-21.2-9.5-21.2-21.3V30.9C9.7,19.2,19.2,9.6,31,9.6h28.3c11.7,0,21.3,9.5,21.3,21.3
				v28.2C80.5,70.9,70.9,80.4,59.2,80.4z M31,16.3c-8.1,0-14.6,6.5-14.6,14.6v28.2c0,8.1,6.5,14.6,14.6,14.6h28.3
				c8.1,0,14.6-6.6,14.6-14.6V30.9c0-8-6.6-14.6-14.6-14.6L31,16.3L31,16.3z"/>
		</g>
	</g>
</g>
</svg>
