<?xml version="1.0" encoding="utf-8"?>
<!-- Generator: Adobe Illustrator 24.3.0, SVG Export Plug-In . SVG Version: 6.00 Build 0)  -->
<svg version="1.1" id="Layer_1" xmlns="http://www.w3.org/2000/svg" xmlns:xlink="http://www.w3.org/1999/xlink" x="0px" y="0px"
	 viewBox="0 0 100 100" style="enable-background:new 0 0 100 100;" xml:space="preserve">
<style type="text/css">
	.st0{fill:#39BDA7;}
</style>
<g>
	<path class="st0" d="M49.7,43c-2.2,0-4,1.8-4,4s1.8,4,4,4s4-1.8,4-4S51.9,43,49.7,43z"/>
	<path class="st0" d="M49.7,34.3c-7.4,0-13.4,6-13.4,13.4c0,6.3,9.7,17.7,12.6,20.9c0.4,0.5,1.2,0.5,1.6,0
		C53.3,65.3,63,53.9,63,47.7C63,40.3,57.1,34.3,49.7,34.3z M49.7,53.6c-3.6,0-6.6-3-6.6-6.6s3-6.6,6.6-6.6s6.6,3,6.6,6.6
		C56.3,50.7,53.3,53.6,49.7,53.6z"/>
</g>
</svg>
