<?xml version="1.0" encoding="utf-8"?>
<!-- Generator: Adobe Illustrator 24.3.0, SVG Export Plug-In . SVG Version: 6.00 Build 0)  -->
<svg version="1.1" id="Layer_1" xmlns="http://www.w3.org/2000/svg" xmlns:xlink="http://www.w3.org/1999/xlink" x="0px" y="0px"
	 viewBox="0 0 90 90" style="enable-background:new 0 0 90 90;" xml:space="preserve">
<g>
	<path d="M50.6,23.6c-8.6,0-15.6,7-15.6,15.6S42,55,50.6,55c3.5,0,7-1.2,9.7-3.2c0.6-0.5,0.7-1.4,0.3-2c-0.5-0.6-1.4-0.7-2-0.3
		c-2.2,1.7-5.1,2.7-7.9,2.7c-7.1,0-12.8-5.8-12.8-13c0-7.1,5.7-12.8,12.8-12.8c7.2,0,13,5.7,13,12.8v1.4c0,1.6-1.3,2.8-2.8,2.8
		c-1.6,0-2.8-1.3-2.8-2.8c0-0.7,0-6.4,0-7.1c0-0.8-0.6-1.4-1.4-1.4c-0.8,0-1.4,0.6-1.4,1.4v0.1c-1.3-1-2.8-1.5-4.5-1.5
		c-3.9,0-7.1,3.2-7.1,7.1s3.2,7.1,7.1,7.1c2.1,0,4.1-0.9,5.5-2.4c1,1.5,2.7,2.4,4.7,2.4c3.1,0,5.7-2.6,5.7-5.7v-1.4
		C66.4,30.5,59.3,23.6,50.6,23.6L50.6,23.6z M50.6,43.5c-2.4,0-4.3-1.9-4.3-4.3s1.9-4.3,4.3-4.3c2.4,0,4.5,2,4.5,4.3
		S53,43.5,50.6,43.5L50.6,43.5z"/>
</g>
</svg>
