<?xml version="1.0" encoding="utf-8"?>
<!-- Generator: Adobe Illustrator 24.3.0, SVG Export Plug-In . SVG Version: 6.00 Build 0)  -->
<svg version="1.1" id="Layer_1" xmlns="http://www.w3.org/2000/svg" xmlns:xlink="http://www.w3.org/1999/xlink" x="0px" y="0px"
	 viewBox="0 0 100 100" style="enable-background:new 0 0 100 100;" xml:space="preserve">
<style type="text/css">
	.st0{fill:#39BDA7;}
</style>
<g>
	<path class="st0" d="M37,36.7l12.3,13.9c0.7,0.8,1.7,1.2,2.8,1.2s2.1-0.5,2.8-1.2L67,36.9c0.1-0.1,0.2-0.2,0.3-0.3
		c-0.5-0.2-1.1-0.4-1.7-0.4h-27C38,36.3,37.5,36.4,37,36.7C37,36.6,37,36.7,37,36.7z"/>
	<path class="st0" d="M69.1,38.3c-0.1,0.1-0.1,0.3-0.2,0.4L56.8,52.4c-1.2,1.4-2.9,2.1-4.7,2.1s-3.5-0.8-4.7-2.1l-12.3-14
		c0,0,0-0.1-0.1-0.1c-0.4,0.6-0.6,1.4-0.6,2.2v18.9c0,2.3,1.9,4.2,4.2,4.2h27c2.3,0,4.2-1.9,4.2-4.2V40.5
		C69.8,39.7,69.5,38.9,69.1,38.3z"/>
</g>
</svg>
