<?xml version="1.0" encoding="utf-8"?>
<!-- Generator: Adobe Illustrator 24.3.0, SVG Export Plug-In . SVG Version: 6.00 Build 0)  -->
<svg version="1.1" id="Layer_1" xmlns="http://www.w3.org/2000/svg" xmlns:xlink="http://www.w3.org/1999/xlink" x="0px" y="0px"
	 viewBox="0 0 90 90" style="enable-background:new 0 0 90 90;" xml:space="preserve">
<style type="text/css">
	.st0{fill:#010101;}
</style>
<g id="Layer_11">
	<path class="st0" d="M87.6,18.1c-2.7,1.2-5.8,2-8.7,2.5c1.4-0.2,3.4-2.8,4.3-3.8c1.3-1.6,2.3-3.3,2.9-5.3c0.1-0.1,0.1-0.3,0-0.4
		c-0.2-0.1-0.3,0-0.5,0c-3.3,1.8-6.7,3-10.3,3.9c-0.3,0.1-0.5,0-0.7-0.2c-0.3-0.3-0.6-0.7-0.9-0.9c-1.5-1.3-3.2-2.3-5-3.1
		c-2.4-1-5.1-1.4-7.7-1.2c-2.5,0.2-5,0.9-7.3,2.1c-2.2,1.2-4.3,2.8-5.9,4.8c-1.7,2-2.9,4.4-3.5,7c-0.6,2.5-0.5,4.9-0.2,7.4
		c0.1,0.4,0,0.5-0.4,0.4c-14.2-2.1-25.9-7.2-35.4-18c-0.4-0.5-0.6-0.5-1,0c-4.2,6.3-2.2,16.3,3.1,21.2c0.7,0.7,1.4,1.3,2.2,1.9
		c-0.3,0.1-3.8-0.3-6.8-1.9c-0.4-0.3-0.6-0.1-0.7,0.4c0,0.7,0,1.3,0.1,2c0.8,6.3,5.2,12.2,11.2,14.5c0.7,0.3,1.5,0.6,2.3,0.7
		c-1.4,0.3-2.8,0.5-6.7,0.2c-0.5-0.1-0.7,0.2-0.5,0.6c2.9,8,9.3,10.4,14.1,11.8c0.6,0.1,1.3,0.1,1.9,0.3c0,0.1-0.1,0.1-0.1,0.1
		c-1.6,2.4-7.1,4.2-9.6,5.1c-4.6,1.6-9.7,2.3-14.6,1.9c-0.8-0.1-1-0.1-1.2,0c-0.2,0.1,0,0.3,0.2,0.5c1,0.7,2,1.2,3,1.8
		c3.1,1.7,6.4,3,9.8,3.9c17.5,4.8,37.3,1.3,50.5-11.8c10.3-10.3,14-24.5,14-38.7c0-0.6,0.7-0.9,1.1-1.2c2.7-2,4.9-4.4,6.9-7.1
		c0.4-0.6,0.5-1.1,0.5-1.4c0,0,0-0.1,0-0.1C87.9,17.9,87.9,17.9,87.6,18.1z"/>
</g>
</svg>
